%TF.GenerationSoftware,Altium Limited,Altium Designer,25.5.2 (35)*%
G04 Layer_Color=8421504*
%FSLAX45Y45*%
%MOMM*%
%TF.SameCoordinates,7619EFF6-2C7F-40E5-9203-650E7B3F98D6*%
%TF.FilePolarity,Positive*%
%TF.FileFunction,Paste,Top*%
%TF.Part,Single*%
G01*
G75*
%TA.AperFunction,BGAPad,CuDef*%
%ADD11R,1.33000X1.33000*%
%TA.AperFunction,SMDPad,CuDef*%
%ADD12R,0.90000X2.00000*%
%ADD13R,2.00000X0.90000*%
G04:AMPARAMS|DCode=14|XSize=0.65mm|YSize=1.65mm|CornerRadius=0.04875mm|HoleSize=0mm|Usage=FLASHONLY|Rotation=90.000|XOffset=0mm|YOffset=0mm|HoleType=Round|Shape=RoundedRectangle|*
%AMROUNDEDRECTD14*
21,1,0.65000,1.55250,0,0,90.0*
21,1,0.55250,1.65000,0,0,90.0*
1,1,0.09750,0.77625,0.27625*
1,1,0.09750,0.77625,-0.27625*
1,1,0.09750,-0.77625,-0.27625*
1,1,0.09750,-0.77625,0.27625*
%
%ADD14ROUNDEDRECTD14*%
%ADD15R,1.00000X0.90000*%
%ADD16R,1.95000X1.05000*%
%ADD18R,0.70000X0.70000*%
%TA.AperFunction,ConnectorPad*%
%ADD20R,1.00000X5.50000*%
%TA.AperFunction,SMDPad,CuDef*%
%ADD21R,1.55620X1.45464*%
G04:AMPARAMS|DCode=22|XSize=1.97mm|YSize=0.6mm|CornerRadius=0.075mm|HoleSize=0mm|Usage=FLASHONLY|Rotation=0.000|XOffset=0mm|YOffset=0mm|HoleType=Round|Shape=RoundedRectangle|*
%AMROUNDEDRECTD22*
21,1,1.97000,0.45000,0,0,0.0*
21,1,1.82000,0.60000,0,0,0.0*
1,1,0.15000,0.91000,-0.22500*
1,1,0.15000,-0.91000,-0.22500*
1,1,0.15000,-0.91000,0.22500*
1,1,0.15000,0.91000,0.22500*
%
%ADD22ROUNDEDRECTD22*%
%ADD23R,5.50000X1.00000*%
%ADD24R,0.95000X0.85000*%
%ADD25R,1.20000X1.00000*%
%TA.AperFunction,SMDPad,SMDef*%
G04:AMPARAMS|DCode=26|XSize=0.25mm|YSize=0.6mm|CornerRadius=0.05mm|HoleSize=0mm|Usage=FLASHONLY|Rotation=0.000|XOffset=0mm|YOffset=0mm|HoleType=Round|Shape=RoundedRectangle|*
%AMROUNDEDRECTD26*
21,1,0.25000,0.50000,0,0,0.0*
21,1,0.15000,0.60000,0,0,0.0*
1,1,0.10000,0.07500,-0.25000*
1,1,0.10000,-0.07500,-0.25000*
1,1,0.10000,-0.07500,0.25000*
1,1,0.10000,0.07500,0.25000*
%
%ADD26ROUNDEDRECTD26*%
%TA.AperFunction,SMDPad,CuDef*%
%ADD28R,0.70000X0.70000*%
%ADD29R,0.70000X1.30000*%
%TA.AperFunction,SMDPad,SMDef*%
G04:AMPARAMS|DCode=30|XSize=0.6mm|YSize=0.25mm|CornerRadius=0.05mm|HoleSize=0mm|Usage=FLASHONLY|Rotation=0.000|XOffset=0mm|YOffset=0mm|HoleType=Round|Shape=RoundedRectangle|*
%AMROUNDEDRECTD30*
21,1,0.60000,0.15000,0,0,0.0*
21,1,0.50000,0.25000,0,0,0.0*
1,1,0.10000,0.25000,-0.07500*
1,1,0.10000,-0.25000,-0.07500*
1,1,0.10000,-0.25000,0.07500*
1,1,0.10000,0.25000,0.07500*
%
%ADD30ROUNDEDRECTD30*%
%TA.AperFunction,SMDPad,CuDef*%
%ADD31R,0.61535X0.57247*%
%ADD32R,0.90000X1.00000*%
%ADD33R,0.85000X0.95000*%
%ADD35R,0.80000X0.90000*%
%ADD36R,3.40000X0.98000*%
%ADD39R,3.00000X1.60000*%
%ADD40R,2.90000X5.40000*%
%TA.AperFunction,ConnectorPad*%
%ADD41R,1.60000X3.00000*%
%TA.AperFunction,SMDPad,CuDef*%
%ADD42R,1.50000X1.60000*%
%TA.AperFunction,NonConductor*%
%ADD79R,0.85000X0.80000*%
%ADD80R,2.00000X0.90000*%
G36*
X1286291Y2390484D02*
X1157291D01*
Y2554484D01*
X1286291D01*
Y2390484D01*
D02*
G37*
G36*
X2779818Y1833742D02*
X2794818Y1833741D01*
X2795812D01*
X2797650Y1832980D01*
X2799056Y1831574D01*
X2799817Y1829736D01*
Y1828742D01*
X2799818D01*
X2799817Y1778741D01*
Y1777747D01*
X2799056Y1775909D01*
X2797650Y1774503D01*
X2795812Y1773742D01*
X2794818D01*
X2794818Y1773741D01*
X2729818Y1773742D01*
X2728823Y1773741D01*
X2726985Y1774503D01*
X2725579Y1775909D01*
X2724818Y1777747D01*
X2724818Y1778741D01*
Y1778742D01*
X2724818Y1828742D01*
X2724817Y1829736D01*
X2725578Y1831574D01*
X2726985Y1832981D01*
X2728823Y1833742D01*
X2729818Y1833742D01*
X2744818Y1833741D01*
X2745812D01*
X2747650Y1832980D01*
X2749056Y1831574D01*
X2749817Y1829736D01*
Y1828742D01*
X2749818D01*
Y1798742D01*
X2774818D01*
Y1828742D01*
X2774818Y1829736D01*
X2775579Y1831574D01*
X2776986Y1832981D01*
X2778823Y1833742D01*
X2779818Y1833742D01*
D02*
G37*
G36*
X2852700Y1725480D02*
X2854107Y1724074D01*
X2854868Y1722236D01*
Y1721242D01*
Y1706242D01*
Y1705247D01*
X2854107Y1703409D01*
X2852700Y1702003D01*
X2850862Y1701242D01*
X2801373D01*
X2799536Y1702003D01*
X2798129Y1703409D01*
X2797368Y1705247D01*
Y1706242D01*
Y1721242D01*
Y1722236D01*
X2798129Y1724074D01*
X2799536Y1725480D01*
X2801373Y1726242D01*
X2850862D01*
X2852700Y1725480D01*
D02*
G37*
G36*
X2775200D02*
X2776607Y1724074D01*
X2777368Y1722236D01*
Y1721242D01*
Y1706242D01*
Y1705247D01*
X2776607Y1703409D01*
X2775200Y1702003D01*
X2773362Y1701242D01*
X2723873D01*
X2722036Y1702003D01*
X2720629Y1703409D01*
X2719868Y1705247D01*
Y1706242D01*
Y1721242D01*
Y1722236D01*
X2720629Y1724074D01*
X2722036Y1725480D01*
X2723873Y1726242D01*
X2773362D01*
X2775200Y1725480D01*
D02*
G37*
G36*
X2849650Y1675481D02*
X2851057Y1674074D01*
X2851818Y1672236D01*
Y1671242D01*
Y1656242D01*
Y1655247D01*
X2851057Y1653409D01*
X2849650Y1652003D01*
X2847812Y1651242D01*
X2783823D01*
X2781986Y1652003D01*
X2780579Y1653409D01*
X2779818Y1655247D01*
Y1656242D01*
Y1671242D01*
Y1672236D01*
X2780579Y1674074D01*
X2781986Y1675481D01*
X2783823Y1676242D01*
X2847812D01*
X2849650Y1675481D01*
D02*
G37*
G36*
X2757650D02*
X2759057Y1674074D01*
X2759818Y1672236D01*
Y1671242D01*
Y1656242D01*
Y1655247D01*
X2759057Y1653409D01*
X2757650Y1652003D01*
X2755812Y1651242D01*
X2691823D01*
X2689986Y1652003D01*
X2688579Y1653409D01*
X2687818Y1655247D01*
Y1656242D01*
Y1671242D01*
Y1672236D01*
X2688579Y1674074D01*
X2689986Y1675481D01*
X2691823Y1676242D01*
X2755812D01*
X2757650Y1675481D01*
D02*
G37*
G36*
X2852700Y1625480D02*
X2854107Y1624074D01*
X2854868Y1622236D01*
Y1621242D01*
Y1606242D01*
Y1605247D01*
X2854107Y1603409D01*
X2852700Y1602003D01*
X2850862Y1601242D01*
X2801373D01*
X2799536Y1602003D01*
X2798129Y1603409D01*
X2797368Y1605247D01*
Y1606242D01*
Y1621242D01*
Y1622236D01*
X2798129Y1624074D01*
X2799536Y1625480D01*
X2801373Y1626242D01*
X2850862D01*
X2852700Y1625480D01*
D02*
G37*
G36*
X2775200D02*
X2776607Y1624074D01*
X2777368Y1622236D01*
Y1621242D01*
Y1606242D01*
Y1605247D01*
X2776607Y1603409D01*
X2775200Y1602003D01*
X2773362Y1601242D01*
X2723873D01*
X2722036Y1602003D01*
X2720629Y1603409D01*
X2719868Y1605247D01*
Y1606242D01*
Y1621242D01*
Y1622236D01*
X2720629Y1624074D01*
X2722036Y1625480D01*
X2723873Y1626242D01*
X2773362D01*
X2775200Y1625480D01*
D02*
G37*
G36*
X2797650Y1552981D02*
X2799057Y1551574D01*
X2799818Y1549736D01*
X2799818Y1548742D01*
X2799818Y1498742D01*
X2799818Y1498741D01*
X2799818Y1497747D01*
X2799057Y1495909D01*
X2797650Y1494503D01*
X2795812Y1493741D01*
X2794818Y1493742D01*
X2779818D01*
Y1493741D01*
X2778823Y1493741D01*
X2776986Y1494502D01*
X2775579Y1495909D01*
X2774818Y1497747D01*
X2774818Y1498741D01*
Y1528742D01*
X2749818D01*
X2749817Y1498742D01*
X2749817Y1498741D01*
Y1497747D01*
X2749056Y1495910D01*
X2747650Y1494503D01*
X2745812Y1493742D01*
X2729818D01*
X2729818Y1493741D01*
X2728823Y1493741D01*
X2726985Y1494502D01*
X2725578Y1495909D01*
X2724817Y1497747D01*
X2724818Y1498741D01*
X2724818Y1548742D01*
X2724818Y1549736D01*
X2725578Y1551574D01*
X2726985Y1552981D01*
X2728823Y1553742D01*
X2729818Y1553741D01*
X2794818Y1553742D01*
Y1553742D01*
X2795812Y1553742D01*
X2797650Y1552981D01*
D02*
G37*
G36*
X7227966Y1472997D02*
X7107966D01*
Y1482997D01*
X7017966D01*
Y1542997D01*
X7107966D01*
Y1552997D01*
X7227966D01*
Y1472997D01*
D02*
G37*
G36*
X5887966Y1542997D02*
X5977966D01*
Y1482997D01*
X5887966D01*
Y1472997D01*
X5767966D01*
Y1552997D01*
X5887966D01*
Y1542997D01*
D02*
G37*
G36*
X7227966Y1362997D02*
X7107966D01*
Y1372997D01*
X7017966D01*
Y1432997D01*
X7107966D01*
Y1442997D01*
X7227966D01*
Y1362997D01*
D02*
G37*
G36*
X5887966Y1432997D02*
X5977966D01*
Y1372997D01*
X5887966D01*
Y1362997D01*
X5767966D01*
Y1442997D01*
X5887966D01*
Y1432997D01*
D02*
G37*
G36*
X7227966Y1252997D02*
X7107966D01*
Y1262997D01*
X7017966D01*
Y1322997D01*
X7107966D01*
Y1332997D01*
X7227966D01*
Y1252997D01*
D02*
G37*
G36*
X5887966Y1322997D02*
X5977966D01*
Y1262997D01*
X5887966D01*
Y1252997D01*
X5767966D01*
Y1332997D01*
X5887966D01*
Y1322997D01*
D02*
G37*
G36*
X7227966Y1142997D02*
X7107966D01*
Y1152997D01*
X7017966D01*
Y1212997D01*
X7107966D01*
Y1222997D01*
X7227966D01*
Y1142997D01*
D02*
G37*
G36*
X5887966Y1212997D02*
X5977966D01*
Y1152997D01*
X5887966D01*
Y1142997D01*
X5767966D01*
Y1222997D01*
X5887966D01*
Y1212997D01*
D02*
G37*
G36*
X7227966Y1032997D02*
X7107966D01*
Y1042997D01*
X7017966D01*
Y1102997D01*
X7107966D01*
Y1112997D01*
X7227966D01*
Y1032997D01*
D02*
G37*
G36*
X5887966Y1102997D02*
X5977966D01*
Y1042997D01*
X5887966D01*
Y1032997D01*
X5767966D01*
Y1112997D01*
X5887966D01*
Y1102997D01*
D02*
G37*
G36*
X7227966Y922997D02*
X7107966D01*
Y932997D01*
X7017966D01*
Y992997D01*
X7107966D01*
Y1002997D01*
X7227966D01*
Y922997D01*
D02*
G37*
G36*
X5887966Y992997D02*
X5977966D01*
Y932997D01*
X5887966D01*
Y922997D01*
X5767966D01*
Y1002997D01*
X5887966D01*
Y992997D01*
D02*
G37*
G36*
X7227966Y812997D02*
X7107966D01*
Y822997D01*
X7017966D01*
Y882997D01*
X7107966D01*
Y892997D01*
X7227966D01*
Y812997D01*
D02*
G37*
G36*
X5887966Y882997D02*
X5977966D01*
Y822997D01*
X5887966D01*
Y812997D01*
X5767966D01*
Y892997D01*
X5887966D01*
Y882997D01*
D02*
G37*
G36*
X7227966Y512997D02*
X7107966D01*
Y522997D01*
X7017966D01*
Y582997D01*
X7107966D01*
Y592997D01*
X7227966D01*
Y512997D01*
D02*
G37*
G36*
X5887966Y582997D02*
X5977966D01*
Y522997D01*
X5887966D01*
Y512997D01*
X5767966D01*
Y592997D01*
X5887966D01*
Y582997D01*
D02*
G37*
G36*
X7227966Y402997D02*
X7107966D01*
Y412997D01*
X7017966D01*
Y472997D01*
X7107966D01*
Y482997D01*
X7227966D01*
Y402997D01*
D02*
G37*
G36*
X5887966Y472997D02*
X5977966D01*
Y412997D01*
X5887966D01*
Y402997D01*
X5767966D01*
Y482997D01*
X5887966D01*
Y472997D01*
D02*
G37*
G36*
X7227966Y292997D02*
X7107966D01*
Y302997D01*
X7017966D01*
Y362997D01*
X7107966D01*
Y372997D01*
X7227966D01*
Y292997D01*
D02*
G37*
G36*
X5887966Y362997D02*
X5977966D01*
Y302997D01*
X5887966D01*
Y292997D01*
X5767966D01*
Y372997D01*
X5887966D01*
Y362997D01*
D02*
G37*
G36*
X7227966Y182997D02*
X7107966D01*
Y192997D01*
X7017966D01*
Y252997D01*
X7107966D01*
Y262997D01*
X7227966D01*
Y182997D01*
D02*
G37*
G36*
X5887966Y252997D02*
X5977966D01*
Y192997D01*
X5887966D01*
Y182997D01*
X5767966D01*
Y262997D01*
X5887966D01*
Y252997D01*
D02*
G37*
G36*
X7227966Y72997D02*
X7107966D01*
Y82997D01*
X7017966D01*
Y142997D01*
X7107966D01*
Y152997D01*
X7227966D01*
Y72997D01*
D02*
G37*
G36*
X5887966Y142997D02*
X5977966D01*
Y82997D01*
X5887966D01*
Y72997D01*
X5767966D01*
Y152997D01*
X5887966D01*
Y142997D01*
D02*
G37*
D11*
X4405689Y1749390D02*
D03*
X4589189D02*
D03*
X4772689D02*
D03*
X4405689Y1565890D02*
D03*
X4589189D02*
D03*
X4772689D02*
D03*
X4405689Y1382390D02*
D03*
X4589189D02*
D03*
X4772689D02*
D03*
D12*
X3917689Y2566890D02*
D03*
X4044689D02*
D03*
X4171689D02*
D03*
X4298689D02*
D03*
X4425689D02*
D03*
X4552689D02*
D03*
X4679689D02*
D03*
X4806689D02*
D03*
X4933689D02*
D03*
X5060689D02*
D03*
D13*
X3639189Y815890D02*
D03*
Y942890D02*
D03*
Y1069890D02*
D03*
Y1196890D02*
D03*
Y1323890D02*
D03*
Y1450890D02*
D03*
Y1577890D02*
D03*
Y1704890D02*
D03*
Y1831890D02*
D03*
Y1958890D02*
D03*
Y2085890D02*
D03*
Y2212890D02*
D03*
Y2339890D02*
D03*
Y2466890D02*
D03*
X5339189D02*
D03*
Y2339890D02*
D03*
Y2212890D02*
D03*
Y2085890D02*
D03*
Y1958890D02*
D03*
Y1831890D02*
D03*
Y1704890D02*
D03*
Y1577890D02*
D03*
Y1450890D02*
D03*
Y1323890D02*
D03*
Y1196890D02*
D03*
Y1069890D02*
D03*
Y942890D02*
D03*
Y815890D02*
D03*
D14*
X1756970Y1267142D02*
D03*
Y886142D02*
D03*
X2321970Y1267142D02*
D03*
Y886142D02*
D03*
Y1013142D02*
D03*
Y1140142D02*
D03*
X1756970Y1013142D02*
D03*
Y1140142D02*
D03*
D15*
X1499752Y1122657D02*
D03*
Y987657D02*
D03*
D16*
X5665394Y3510792D02*
D03*
Y2910792D02*
D03*
Y3910792D02*
D03*
X7145394Y2710792D02*
D03*
X5665394Y2510792D02*
D03*
X7145394Y3510792D02*
D03*
X5665394Y3110792D02*
D03*
Y3310792D02*
D03*
X7145394D02*
D03*
X5665394Y3710792D02*
D03*
Y2710792D02*
D03*
X7145394Y2510792D02*
D03*
Y2910792D02*
D03*
Y3110792D02*
D03*
Y3710792D02*
D03*
Y3910792D02*
D03*
D18*
X2994840Y2474613D02*
D03*
Y2614614D02*
D03*
D20*
X2228636Y3550217D02*
D03*
X2028636D02*
D03*
D21*
X2406788Y2425011D02*
D03*
X2074922Y2419639D02*
D03*
X2406788Y2610168D02*
D03*
X2074922Y2604795D02*
D03*
D22*
X974291Y2662984D02*
D03*
Y2408984D02*
D03*
X1469291Y2662984D02*
D03*
X974291Y2535984D02*
D03*
Y2281984D02*
D03*
X1469291D02*
D03*
Y2408984D02*
D03*
Y2535984D02*
D03*
D23*
X539391Y3570828D02*
D03*
X549235Y555251D02*
D03*
X539391Y3370827D02*
D03*
X549235Y755251D02*
D03*
D24*
X647916Y2724064D02*
D03*
X1492927Y1534928D02*
D03*
X1642133Y256745D02*
D03*
X3127578Y2163065D02*
D03*
Y2033065D02*
D03*
X1913044Y1451954D02*
D03*
X1209810Y279119D02*
D03*
X1913044Y1581954D02*
D03*
X1042355Y1878420D02*
D03*
Y1748420D02*
D03*
X1209810Y409119D02*
D03*
X1492927Y1664928D02*
D03*
X1208518Y863429D02*
D03*
Y733429D02*
D03*
X1642133Y386745D02*
D03*
X647916Y2594064D02*
D03*
X2688248Y2487068D02*
D03*
Y2617068D02*
D03*
D25*
X215389Y2598157D02*
D03*
Y2398157D02*
D03*
D26*
X2637318Y1803742D02*
D03*
Y1523742D02*
D03*
X2687318D02*
D03*
Y1803742D02*
D03*
D28*
X2794588Y1152530D02*
D03*
X2654588D02*
D03*
D29*
X2833294Y618362D02*
D03*
X2849108Y332770D02*
D03*
X2828465Y886350D02*
D03*
X2638465D02*
D03*
X2643293Y618362D02*
D03*
X2659107Y332770D02*
D03*
D30*
X2594818Y1588742D02*
D03*
Y1738742D02*
D03*
Y1688742D02*
D03*
Y1638742D02*
D03*
D31*
X2310572Y1509684D02*
D03*
X2224859D02*
D03*
D32*
X3419581Y2767191D02*
D03*
X3284581D02*
D03*
X5772816Y1801701D02*
D03*
X5907816D02*
D03*
D33*
X6885615Y1943695D02*
D03*
X6886061Y1761384D02*
D03*
X6104903Y1769787D02*
D03*
X6234903D02*
D03*
X965653Y1315627D02*
D03*
X1095653D02*
D03*
X7016061Y1761384D02*
D03*
X7015615Y1943695D02*
D03*
D35*
X1745824Y1965242D02*
D03*
X1232807Y3319007D02*
D03*
Y3489008D02*
D03*
X1745824Y1795242D02*
D03*
D36*
X3264609Y1553953D02*
D03*
Y1790952D02*
D03*
D39*
X314391Y3810828D02*
D03*
Y3130827D02*
D03*
X324235Y995252D02*
D03*
Y315251D02*
D03*
D40*
X7547640Y719383D02*
D03*
X8517640D02*
D03*
D41*
X2468636Y3775217D02*
D03*
X1788635D02*
D03*
D42*
X280925Y1290952D02*
D03*
X640925D02*
D03*
X290129Y1811151D02*
D03*
X650129D02*
D03*
D79*
X8971127Y278384D02*
D03*
X4958524Y3752974D02*
D03*
D80*
X9123603Y428357D02*
D03*
Y128357D02*
D03*
X5111025Y3902947D02*
D03*
X5111024Y3602947D02*
D03*
%TF.MD5,11fefa75d99d7d1cbd851ab16ea566c3*%
M02*
