%TF.GenerationSoftware,Altium Limited,Altium Designer,25.5.2 (35)*%
G04 Layer_Color=0*
%FSLAX45Y45*%
%MOMM*%
%TF.SameCoordinates,50C6A35A-3351-48EA-99BD-CB12244F42B2*%
%TF.FilePolarity,Positive*%
%TF.FileFunction,Plated,1,2,PTH,Drill*%
%TF.Part,Single*%
G01*
G75*
%TA.AperFunction,ComponentDrill*%
%ADD82C,1.00000*%
%ADD83C,1.02000*%
%ADD84C,2.00000*%
%TA.AperFunction,ViaDrill,NotFilled*%
%ADD85C,0.71120*%
D82*
X8272358Y3854040D02*
D03*
X8526358D02*
D03*
X9034358D02*
D03*
X8780358D02*
D03*
D83*
X4338956Y3913960D02*
D03*
X3322956D02*
D03*
X4084956D02*
D03*
X3576956D02*
D03*
X3830956D02*
D03*
X3068956D02*
D03*
D84*
X7553358Y1604040D02*
D03*
X9753358D02*
D03*
Y3804040D02*
D03*
X7553358D02*
D03*
D85*
X6396576Y1091081D02*
D03*
X4928089Y1547693D02*
D03*
X5036904Y1373108D02*
D03*
X6613174Y1287190D02*
D03*
X5067720Y1655992D02*
D03*
X3878407Y1634740D02*
D03*
X5559900Y1196558D02*
D03*
X1273267Y1181052D02*
D03*
X4332935Y2880139D02*
D03*
X3920453Y1196313D02*
D03*
X5418897Y3786574D02*
D03*
X5362318Y2782299D02*
D03*
X7197481Y2252194D02*
D03*
X5907892Y2338311D02*
D03*
X3589806Y3232383D02*
D03*
X6849638Y1507136D02*
D03*
X6239972Y352726D02*
D03*
X2141249Y3011274D02*
D03*
X1036559Y3676043D02*
D03*
X836552Y2856050D02*
D03*
X403610Y2851433D02*
D03*
X757621Y2419534D02*
D03*
X2348679Y1726358D02*
D03*
X2670403Y1333028D02*
D03*
X2082887Y2162825D02*
D03*
X1603993Y1409883D02*
D03*
X1783955Y718939D02*
D03*
X3396498Y2219074D02*
D03*
X3397328Y1931474D02*
D03*
X3368085Y1020787D02*
D03*
X3414850Y3139203D02*
D03*
X4173672Y3094445D02*
D03*
X4497382Y3422747D02*
D03*
X4784359Y2995725D02*
D03*
X4670884Y2024678D02*
D03*
X4473087Y2806591D02*
D03*
X4391679Y940831D02*
D03*
X3156057Y717236D02*
D03*
X2954171Y1895100D02*
D03*
X1958391Y1965036D02*
D03*
X2982078Y1300882D02*
D03*
X1677835Y1613840D02*
D03*
X2469151Y756769D02*
D03*
X1429689Y272716D02*
D03*
X2155502Y270581D02*
D03*
X5570239Y1795477D02*
D03*
X5016401Y1067210D02*
D03*
X3946144Y2903573D02*
D03*
X3325084Y1309266D02*
D03*
X4117506Y2822713D02*
D03*
X8550893Y254465D02*
D03*
X6402425Y223733D02*
D03*
X7176667Y1807865D02*
D03*
X6469156Y1821228D02*
D03*
X6502798Y2016353D02*
D03*
X2362733Y2170151D02*
D03*
X2285079Y2006053D02*
D03*
X2081422Y1707160D02*
D03*
X2694353Y2053589D02*
D03*
X4271283Y3396134D02*
D03*
X4628749Y3577316D02*
D03*
X6929855Y2199194D02*
D03*
X7217537Y1637140D02*
D03*
X3816272Y3296261D02*
D03*
X2078696Y1523814D02*
D03*
X2886760Y2040450D02*
D03*
X2668503Y2315453D02*
D03*
X2840198Y2353284D02*
D03*
X1237637Y1792836D02*
D03*
X1709808Y2825640D02*
D03*
X1687121Y2551932D02*
D03*
X1120970Y1554720D02*
D03*
X692855Y2247061D02*
D03*
X411584Y2396445D02*
D03*
X1218850Y3055676D02*
D03*
X1210987Y2108446D02*
D03*
%TF.MD5,c805d5436b18b6e57c132901a04ce076*%
M02*
