%TF.GenerationSoftware,Altium Limited,Altium Designer,25.5.2 (35)*%
G04 Layer_Color=8388736*
%FSLAX45Y45*%
%MOMM*%
%TF.SameCoordinates,50C6A35A-3351-48EA-99BD-CB12244F42B2*%
%TF.FilePolarity,Negative*%
%TF.FileFunction,Soldermask,Top*%
%TF.Part,Single*%
G01*
G75*
%TA.AperFunction,BGAPad,CuDef*%
%ADD11R,1.33000X1.33000*%
%TA.AperFunction,SMDPad,CuDef*%
%ADD12R,0.90000X2.00000*%
%ADD13R,2.00000X0.90000*%
%ADD17R,2.20000X1.05000*%
%ADD18R,0.70000X0.70000*%
%ADD20R,0.70000X1.30000*%
%ADD22R,1.55620X1.45464*%
%ADD30R,0.70000X0.70000*%
%ADD31R,0.61535X0.57247*%
%ADD36R,2.90000X5.40000*%
%ADD37R,1.05000X1.00000*%
%ADD40R,3.40000X0.98000*%
G04:AMPARAMS|DCode=57|XSize=0.8532mm|YSize=1.8532mm|CornerRadius=0.15035mm|HoleSize=0mm|Usage=FLASHONLY|Rotation=90.000|XOffset=0mm|YOffset=0mm|HoleType=Round|Shape=RoundedRectangle|*
%AMROUNDEDRECTD57*
21,1,0.85320,1.55250,0,0,90.0*
21,1,0.55250,1.85320,0,0,90.0*
1,1,0.30070,0.77625,0.27625*
1,1,0.30070,0.77625,-0.27625*
1,1,0.30070,-0.77625,-0.27625*
1,1,0.30070,-0.77625,0.27625*
%
%ADD57ROUNDEDRECTD57*%
%ADD58R,1.20320X1.10320*%
%ADD59R,2.15320X1.25320*%
%TA.AperFunction,ConnectorPad*%
%ADD60R,2.00320X1.00320*%
%ADD61R,1.20320X5.70320*%
%TA.AperFunction,SMDPad,CuDef*%
G04:AMPARAMS|DCode=62|XSize=2.1732mm|YSize=0.8032mm|CornerRadius=0.1766mm|HoleSize=0mm|Usage=FLASHONLY|Rotation=0.000|XOffset=0mm|YOffset=0mm|HoleType=Round|Shape=RoundedRectangle|*
%AMROUNDEDRECTD62*
21,1,2.17320,0.45000,0,0,0.0*
21,1,1.82000,0.80320,0,0,0.0*
1,1,0.35320,0.91000,-0.22500*
1,1,0.35320,-0.91000,-0.22500*
1,1,0.35320,-0.91000,0.22500*
1,1,0.35320,0.91000,0.22500*
%
%ADD62ROUNDEDRECTD62*%
%ADD63R,5.70320X1.20320*%
%ADD64R,1.15320X1.05320*%
%ADD65R,1.40320X1.20320*%
%ADD66R,1.10320X1.20320*%
%ADD67R,1.05320X1.15320*%
%ADD68R,1.00320X1.10320*%
%TA.AperFunction,ConnectorPad*%
%ADD69R,1.80320X3.20320*%
%TA.AperFunction,SMDPad,CuDef*%
%ADD70R,3.20320X1.80320*%
%ADD71R,1.70320X1.80320*%
%ADD72R,2.61620X3.50520*%
%TA.AperFunction,ComponentPad*%
%ADD73R,1.71120X1.71120*%
%ADD74C,1.57320*%
%ADD75C,1.71120*%
%ADD76C,3.20320*%
%ADD77R,1.57320X1.57320*%
%TA.AperFunction,ViaPad*%
%ADD78C,1.47320*%
G36*
X2779818Y1833742D02*
X2794818Y1833741D01*
X2795812D01*
X2797650Y1832980D01*
X2799056Y1831574D01*
X2799817Y1829736D01*
Y1828742D01*
X2799818D01*
X2799817Y1778741D01*
Y1777747D01*
X2799056Y1775909D01*
X2797650Y1774503D01*
X2795812Y1773742D01*
X2794818D01*
X2794818Y1773741D01*
X2729818Y1773742D01*
X2728823Y1773741D01*
X2726985Y1774503D01*
X2725579Y1775909D01*
X2724818Y1777747D01*
X2724818Y1778741D01*
Y1778742D01*
X2724818Y1828742D01*
X2724817Y1829736D01*
X2725578Y1831574D01*
X2726985Y1832981D01*
X2728823Y1833742D01*
X2729818Y1833742D01*
X2744818Y1833741D01*
X2745812D01*
X2747650Y1832980D01*
X2749056Y1831574D01*
X2749817Y1829736D01*
Y1828742D01*
X2749818D01*
Y1798742D01*
X2774818D01*
Y1828742D01*
X2774818Y1829736D01*
X2775579Y1831574D01*
X2776986Y1832981D01*
X2778823Y1833742D01*
X2779818Y1833742D01*
D02*
G37*
G36*
X2700483Y1837219D02*
X2703296Y1834406D01*
X2704818Y1830731D01*
Y1828742D01*
Y1778742D01*
Y1776752D01*
X2703296Y1773077D01*
X2700483Y1770264D01*
X2696807Y1768742D01*
X2677829D01*
X2674153Y1770264D01*
X2671340Y1773077D01*
X2669818Y1776752D01*
Y1778742D01*
Y1828742D01*
Y1830731D01*
X2671340Y1834406D01*
X2674153Y1837219D01*
X2677829Y1838742D01*
X2696807D01*
X2700483Y1837219D01*
D02*
G37*
G36*
X2650482D02*
X2653295Y1834406D01*
X2654818Y1830731D01*
Y1828742D01*
X2654818D01*
X2654818Y1778742D01*
Y1776752D01*
X2653295Y1773077D01*
X2650482Y1770264D01*
X2646807Y1768742D01*
X2627829D01*
X2624153Y1770264D01*
X2621340Y1773077D01*
X2619818Y1776752D01*
Y1778742D01*
Y1828742D01*
Y1830731D01*
X2621340Y1834406D01*
X2624153Y1837219D01*
X2627829Y1838742D01*
X2646807D01*
X2650482Y1837219D01*
D02*
G37*
G36*
X2625482Y1754719D02*
X2628295Y1751906D01*
X2629818Y1748231D01*
Y1746242D01*
Y1731242D01*
Y1729252D01*
X2628295Y1725577D01*
X2625482Y1722764D01*
X2621807Y1721242D01*
X2567829D01*
X2564153Y1722764D01*
X2561340Y1725577D01*
X2559818Y1729252D01*
Y1731242D01*
Y1746242D01*
Y1748231D01*
X2561340Y1751906D01*
X2564153Y1754719D01*
X2567829Y1756242D01*
X2621807D01*
X2625482Y1754719D01*
D02*
G37*
G36*
X2852650Y1725480D02*
X2854057Y1724074D01*
X2854818Y1722236D01*
Y1721242D01*
Y1706242D01*
Y1705247D01*
X2854057Y1703409D01*
X2852650Y1702003D01*
X2850812Y1701242D01*
X2723823D01*
X2721986Y1702003D01*
X2720579Y1703409D01*
X2719818Y1705247D01*
Y1706242D01*
Y1721242D01*
Y1722236D01*
X2720579Y1724074D01*
X2721986Y1725480D01*
X2723823Y1726242D01*
X2850812D01*
X2852650Y1725480D01*
D02*
G37*
G36*
X2625482Y1704719D02*
X2628295Y1701906D01*
X2629818Y1698231D01*
Y1696242D01*
Y1681242D01*
Y1679252D01*
X2628295Y1675577D01*
X2625482Y1672764D01*
X2621807Y1671242D01*
X2567829D01*
X2564153Y1672764D01*
X2561340Y1675577D01*
X2559818Y1679252D01*
Y1681242D01*
Y1696242D01*
Y1698231D01*
X2561340Y1701906D01*
X2564153Y1704719D01*
X2567829Y1706242D01*
X2621807D01*
X2625482Y1704719D01*
D02*
G37*
G36*
X2852650Y1675480D02*
X2854057Y1674074D01*
X2854818Y1672236D01*
Y1671242D01*
X2854818D01*
Y1656242D01*
Y1655247D01*
X2854057Y1653409D01*
X2852650Y1652003D01*
X2850812Y1651242D01*
X2688823D01*
X2686986Y1652003D01*
X2685579Y1653409D01*
X2684818Y1655247D01*
Y1656242D01*
Y1671242D01*
Y1672236D01*
X2685579Y1674074D01*
X2686986Y1675480D01*
X2688823Y1676242D01*
X2850812D01*
X2852650Y1675480D01*
D02*
G37*
G36*
X2625482Y1654719D02*
X2628295Y1651906D01*
X2629818Y1648231D01*
Y1646242D01*
Y1631242D01*
Y1629252D01*
X2628295Y1625577D01*
X2625482Y1622764D01*
X2621807Y1621242D01*
X2567829D01*
X2564153Y1622764D01*
X2561340Y1625577D01*
X2559818Y1629252D01*
Y1631242D01*
Y1646242D01*
Y1648231D01*
X2561340Y1651906D01*
X2564153Y1654719D01*
X2567829Y1656242D01*
X2621807D01*
X2625482Y1654719D01*
D02*
G37*
G36*
X2852650Y1625480D02*
X2854057Y1624074D01*
X2854818Y1622236D01*
Y1621242D01*
Y1606242D01*
Y1605247D01*
X2854057Y1603409D01*
X2852650Y1602003D01*
X2850812Y1601242D01*
X2723823D01*
X2721986Y1602003D01*
X2720579Y1603409D01*
X2719818Y1605247D01*
Y1606242D01*
Y1621242D01*
Y1622236D01*
X2720579Y1624074D01*
X2721986Y1625480D01*
X2723823Y1626242D01*
X2850812D01*
X2852650Y1625480D01*
D02*
G37*
G36*
X2625482Y1604719D02*
X2628295Y1601906D01*
X2629818Y1598231D01*
Y1596242D01*
Y1581242D01*
Y1579252D01*
X2628295Y1575577D01*
X2625482Y1572764D01*
X2621807Y1571242D01*
X2567829D01*
X2564153Y1572764D01*
X2561340Y1575577D01*
X2559818Y1579252D01*
Y1581242D01*
Y1596242D01*
Y1598231D01*
X2561340Y1601906D01*
X2564153Y1604719D01*
X2567829Y1606242D01*
X2621807D01*
X2625482Y1604719D01*
D02*
G37*
G36*
X2797650Y1552981D02*
X2799057Y1551574D01*
X2799818Y1549736D01*
X2799818Y1548742D01*
X2799818Y1498742D01*
X2799818Y1498741D01*
X2799818Y1497747D01*
X2799057Y1495909D01*
X2797650Y1494503D01*
X2795812Y1493741D01*
X2794818Y1493742D01*
X2779818D01*
Y1493741D01*
X2778823Y1493741D01*
X2776986Y1494502D01*
X2775579Y1495909D01*
X2774818Y1497747D01*
X2774818Y1498741D01*
Y1528742D01*
X2749818D01*
X2749817Y1498742D01*
X2749817Y1498741D01*
Y1497747D01*
X2749056Y1495910D01*
X2747650Y1494503D01*
X2745812Y1493742D01*
X2729818D01*
X2729818Y1493741D01*
X2728823Y1493741D01*
X2726985Y1494502D01*
X2725578Y1495909D01*
X2724817Y1497747D01*
X2724818Y1498741D01*
X2724818Y1548742D01*
X2724818Y1549736D01*
X2725578Y1551574D01*
X2726985Y1552981D01*
X2728823Y1553742D01*
X2729818Y1553741D01*
X2794818Y1553742D01*
Y1553742D01*
X2795812Y1553742D01*
X2797650Y1552981D01*
D02*
G37*
G36*
X2700483Y1557219D02*
X2703296Y1554406D01*
X2704818Y1550731D01*
Y1548742D01*
Y1498742D01*
Y1496752D01*
X2703296Y1493077D01*
X2700483Y1490264D01*
X2696807Y1488742D01*
X2677829D01*
X2674153Y1490264D01*
X2671340Y1493077D01*
X2669818Y1496752D01*
Y1498742D01*
Y1548742D01*
Y1550731D01*
X2671340Y1554406D01*
X2674153Y1557219D01*
X2677829Y1558742D01*
X2696807D01*
X2700483Y1557219D01*
D02*
G37*
G36*
X2650482D02*
X2653295Y1554406D01*
X2654818Y1550731D01*
Y1548742D01*
X2654818D01*
X2654818Y1498742D01*
Y1496752D01*
X2653295Y1493077D01*
X2650482Y1490264D01*
X2646807Y1488742D01*
X2627829D01*
X2624153Y1490264D01*
X2621340Y1493077D01*
X2619818Y1496752D01*
Y1498742D01*
Y1548742D01*
Y1550731D01*
X2621340Y1554406D01*
X2624153Y1557219D01*
X2627829Y1558742D01*
X2646807D01*
X2650482Y1557219D01*
D02*
G37*
D11*
X4405689Y1749390D02*
D03*
X4589189D02*
D03*
X4772689D02*
D03*
X4405689Y1565890D02*
D03*
X4589189D02*
D03*
X4772689D02*
D03*
X4405689Y1382390D02*
D03*
X4589189D02*
D03*
X4772689D02*
D03*
D12*
X3917689Y2566890D02*
D03*
X4044689D02*
D03*
X4171689D02*
D03*
X4298689D02*
D03*
X4425689D02*
D03*
X4552689D02*
D03*
X4679689D02*
D03*
X4806689D02*
D03*
X4933689D02*
D03*
X5060689D02*
D03*
D13*
X3639189Y815890D02*
D03*
Y942890D02*
D03*
Y1069890D02*
D03*
Y1196890D02*
D03*
Y1323890D02*
D03*
Y1450890D02*
D03*
Y1577890D02*
D03*
Y1704890D02*
D03*
Y1831890D02*
D03*
Y1958890D02*
D03*
Y2085890D02*
D03*
Y2212890D02*
D03*
Y2339890D02*
D03*
Y2466890D02*
D03*
X5339189D02*
D03*
Y2339890D02*
D03*
Y2212890D02*
D03*
Y2085890D02*
D03*
Y1958890D02*
D03*
Y1831890D02*
D03*
Y1704890D02*
D03*
Y1577890D02*
D03*
Y1450890D02*
D03*
Y1323890D02*
D03*
Y1196890D02*
D03*
Y1069890D02*
D03*
Y942890D02*
D03*
Y815890D02*
D03*
D17*
X5111024Y3900447D02*
D03*
Y3605447D02*
D03*
X9123603Y425857D02*
D03*
Y130856D02*
D03*
D18*
X2994840Y2474613D02*
D03*
Y2614614D02*
D03*
D20*
X2849108Y332770D02*
D03*
X2828465Y886350D02*
D03*
X2833294Y618362D02*
D03*
X2638465Y886350D02*
D03*
X2643293Y618362D02*
D03*
X2659107Y332770D02*
D03*
D22*
X2406788Y2425011D02*
D03*
X2074922Y2419639D02*
D03*
X2406788Y2610168D02*
D03*
X2074922Y2604795D02*
D03*
D30*
X2794588Y1152530D02*
D03*
X2654588D02*
D03*
D31*
X2310572Y1509684D02*
D03*
X2224859D02*
D03*
D36*
X7547640Y719383D02*
D03*
X8517640D02*
D03*
D37*
X8971103Y278357D02*
D03*
X4958524Y3752947D02*
D03*
D40*
X3264609Y1790952D02*
D03*
Y1553953D02*
D03*
D57*
X1756970Y1267142D02*
D03*
Y886142D02*
D03*
X2321970Y1267142D02*
D03*
Y886142D02*
D03*
Y1013142D02*
D03*
Y1140142D02*
D03*
X1756970Y1013142D02*
D03*
Y1140142D02*
D03*
D58*
X1499752Y1122657D02*
D03*
Y987657D02*
D03*
D59*
X5665394Y3510792D02*
D03*
Y2910792D02*
D03*
Y3910792D02*
D03*
X7145394Y2710792D02*
D03*
X5665394Y2510792D02*
D03*
X7145394Y3510792D02*
D03*
X5665394Y3110792D02*
D03*
Y3310792D02*
D03*
X7145394D02*
D03*
Y3910792D02*
D03*
Y3710792D02*
D03*
Y3110792D02*
D03*
Y2910792D02*
D03*
Y2510792D02*
D03*
X5665394Y2710792D02*
D03*
Y3710792D02*
D03*
D60*
X7097966Y1512997D02*
D03*
X5897966Y332997D02*
D03*
X7097966Y112997D02*
D03*
X5897966D02*
D03*
X7097966Y1182997D02*
D03*
Y1402997D02*
D03*
Y1072997D02*
D03*
X5897966Y1512997D02*
D03*
Y1402997D02*
D03*
Y1292997D02*
D03*
Y1182997D02*
D03*
Y1072997D02*
D03*
Y962997D02*
D03*
Y852997D02*
D03*
Y552997D02*
D03*
Y442997D02*
D03*
Y222997D02*
D03*
X7097966D02*
D03*
Y332997D02*
D03*
Y442997D02*
D03*
Y552997D02*
D03*
Y852997D02*
D03*
Y962997D02*
D03*
Y1292997D02*
D03*
D61*
X2228636Y3550217D02*
D03*
X2028636D02*
D03*
D62*
X974291Y2662984D02*
D03*
Y2408984D02*
D03*
X1469291Y2662984D02*
D03*
X974291Y2535984D02*
D03*
Y2281984D02*
D03*
X1469291D02*
D03*
Y2408984D02*
D03*
Y2535984D02*
D03*
D63*
X539391Y3570828D02*
D03*
X549235Y555251D02*
D03*
X539391Y3370827D02*
D03*
X549235Y755251D02*
D03*
D64*
X647916Y2724064D02*
D03*
X1492927Y1534928D02*
D03*
X1642133Y256745D02*
D03*
X3127578Y2163065D02*
D03*
Y2033065D02*
D03*
X1913044Y1451954D02*
D03*
X1209810Y279119D02*
D03*
X1913044Y1581954D02*
D03*
X1042355Y1878420D02*
D03*
Y1748420D02*
D03*
X1209810Y409119D02*
D03*
X1492927Y1664928D02*
D03*
X1208518Y863429D02*
D03*
Y733429D02*
D03*
X1642133Y386745D02*
D03*
X647916Y2594064D02*
D03*
X2688248Y2487068D02*
D03*
Y2617068D02*
D03*
D65*
X215389Y2598157D02*
D03*
Y2398157D02*
D03*
D66*
X3419581Y2767191D02*
D03*
X3284581D02*
D03*
X5772816Y1801701D02*
D03*
X5907816D02*
D03*
D67*
X6885615Y1943695D02*
D03*
X6886061Y1761384D02*
D03*
X6104903Y1769787D02*
D03*
X6234903D02*
D03*
X965653Y1315627D02*
D03*
X1095653D02*
D03*
X7016061Y1761384D02*
D03*
X7015615Y1943695D02*
D03*
D68*
X1745824Y1965242D02*
D03*
X1232807Y3319007D02*
D03*
Y3489008D02*
D03*
X1745824Y1795242D02*
D03*
D69*
X2468636Y3775217D02*
D03*
X1788635D02*
D03*
D70*
X314391Y3130827D02*
D03*
Y3810828D02*
D03*
X324235Y995252D02*
D03*
Y315251D02*
D03*
D71*
X280925Y1290952D02*
D03*
X640925D02*
D03*
X290129Y1811151D02*
D03*
X650129D02*
D03*
D72*
X1221791Y2472484D02*
D03*
D73*
X8272358Y3854040D02*
D03*
D74*
X4338956Y3913960D02*
D03*
X3322956D02*
D03*
X4084956D02*
D03*
X3576956D02*
D03*
X3830956D02*
D03*
D75*
X8526358Y3854040D02*
D03*
X9034358D02*
D03*
X8780358D02*
D03*
D76*
X7553358Y1604040D02*
D03*
X9753358D02*
D03*
Y3804040D02*
D03*
X7553358D02*
D03*
D77*
X3068956Y3913960D02*
D03*
D78*
X6396576Y1091081D02*
D03*
X4928089Y1547693D02*
D03*
X5036904Y1373108D02*
D03*
X6613174Y1287190D02*
D03*
X5067720Y1655992D02*
D03*
X3878407Y1634740D02*
D03*
X5559900Y1196558D02*
D03*
X1273267Y1181052D02*
D03*
X4332935Y2880139D02*
D03*
X3920453Y1196313D02*
D03*
X5418897Y3786574D02*
D03*
X5362318Y2782299D02*
D03*
X7197481Y2252194D02*
D03*
X5907892Y2338311D02*
D03*
X3589806Y3232383D02*
D03*
X6849638Y1507136D02*
D03*
X6239972Y352726D02*
D03*
X2141249Y3011274D02*
D03*
X1036559Y3676043D02*
D03*
X836552Y2856050D02*
D03*
X403610Y2851433D02*
D03*
X757621Y2419534D02*
D03*
X2348679Y1726358D02*
D03*
X2670403Y1333028D02*
D03*
X2082887Y2162825D02*
D03*
X1603993Y1409883D02*
D03*
X1783955Y718939D02*
D03*
X3396498Y2219074D02*
D03*
X3397328Y1931474D02*
D03*
X3368085Y1020787D02*
D03*
X3414850Y3139203D02*
D03*
X4173672Y3094445D02*
D03*
X4497382Y3422747D02*
D03*
X4784359Y2995725D02*
D03*
X4670884Y2024678D02*
D03*
X4473087Y2806591D02*
D03*
X4391679Y940831D02*
D03*
X3156057Y717236D02*
D03*
X2954171Y1895100D02*
D03*
X1958391Y1965036D02*
D03*
X2982078Y1300882D02*
D03*
X1677835Y1613840D02*
D03*
X2469151Y756769D02*
D03*
X1429689Y272716D02*
D03*
X2155502Y270581D02*
D03*
X5570239Y1795477D02*
D03*
X5016401Y1067210D02*
D03*
X3946144Y2903573D02*
D03*
X3325084Y1309266D02*
D03*
X4117506Y2822713D02*
D03*
X8550893Y254465D02*
D03*
X6402425Y223733D02*
D03*
X7176667Y1807865D02*
D03*
X6469156Y1821228D02*
D03*
X6502798Y2016353D02*
D03*
X2362733Y2170151D02*
D03*
X2285079Y2006053D02*
D03*
X2081422Y1707160D02*
D03*
X2694353Y2053589D02*
D03*
X4271283Y3396134D02*
D03*
X4628749Y3577316D02*
D03*
X6929855Y2199194D02*
D03*
X7217537Y1637140D02*
D03*
X3816272Y3296261D02*
D03*
X2078696Y1523814D02*
D03*
X2886760Y2040450D02*
D03*
X2668503Y2315453D02*
D03*
X2840198Y2353284D02*
D03*
X1237637Y1792836D02*
D03*
X1709808Y2825640D02*
D03*
X1687121Y2551932D02*
D03*
X1120970Y1554720D02*
D03*
X692855Y2247061D02*
D03*
X411584Y2396445D02*
D03*
X1218850Y3055676D02*
D03*
X1210987Y2108446D02*
D03*
%TF.MD5,cac740784adc451bb37837a417ffeaa3*%
M02*
